<svg width="22" height="22" viewBox="0 0 22 22" fill="none" xmlns="http://www.w3.org/2000/svg">
<g id="AddUser">
<g id="Vector">
<path d="M3.66675 17.5188C3.66675 15.3068 5.22263 13.4227 7.33712 13.0741L7.52758 13.0427C9.22076 12.7635 10.9461 12.7635 12.6392 13.0427L12.8297 13.0741C14.9442 13.4227 16.5001 15.3068 16.5001 17.5188C16.5001 18.4749 15.7498 19.25 14.8243 19.25H5.34253C4.41702 19.25 3.66675 18.4749 3.66675 17.5188Z" stroke="black" stroke-width="1.5"/>
<path d="M13.8265 6.35938C13.8265 8.35278 12.1507 9.96875 10.0834 9.96875C8.0162 9.96875 6.34038 8.35278 6.34038 6.35938C6.34038 4.36597 8.0162 2.75 10.0834 2.75C12.1507 2.75 13.8265 4.36597 13.8265 6.35938Z" stroke="black" stroke-width="1.5"/>
</g>
<path id="Vector_2" d="M18.6388 9.77778H15.5833M17.111 11.3056L17.111 8.25" stroke="black" stroke-width="1.5" stroke-linecap="round"/>
</g>
</svg>
