<svg width="32" height="32" viewBox="0 0 32 32" fill="none" xmlns="http://www.w3.org/2000/svg">
<g id="COCO/Line/Note-add">
<path id="Vector" d="M10.7602 4V7.35166M21.24 4V7.35166M5.11111 20.3313C4.51863 17.7463 4.51863 15.056 5.11111 12.471C5.93152 8.89153 8.66239 6.09668 12.1599 5.25706C14.6857 4.65069 17.3144 4.65069 19.8403 5.25706C23.3378 6.09668 26.0687 8.89154 26.8891 12.471C27.4815 15.056 27.4815 17.7463 26.8891 20.3313C26.0687 23.9108 23.3378 26.7056 19.8403 27.5452C17.3144 28.1516 14.6857 28.1516 12.1599 27.5452C8.66239 26.7056 5.93152 23.9108 5.11111 20.3313Z" stroke="#363853" stroke-width="1.5" stroke-linecap="round"/>
<path id="Vector_2" d="M18.6666 17.3333H13.3333M15.9999 20L15.9999 14.6667" stroke="#363853" stroke-width="1.5" stroke-linecap="round"/>
</g>
</svg>
