<svg width="18" height="18" viewBox="0 0 18 18" fill="none" xmlns="http://www.w3.org/2000/svg">
<path d="M8.99606 4.90692C9.65396 4.90692 10.4787 4.44848 10.9698 3.83722C11.4145 3.28327 11.7389 2.50964 11.7389 1.73602C11.7389 1.63096 11.7296 1.5259 11.7111 1.43994C10.979 1.46859 10.0987 1.94614 9.57057 2.58605C9.15359 3.07315 8.77368 3.83722 8.77368 4.62039C8.77368 4.735 8.79221 4.84961 8.80147 4.88782C8.84781 4.89737 8.92193 4.90692 8.99606 4.90692ZM6.67952 16.4635C7.57834 16.4635 7.97678 15.8427 9.09799 15.8427C10.2377 15.8427 10.4879 16.4444 11.4887 16.4444C12.4709 16.4444 13.1288 15.5084 13.7496 14.5915C14.4446 13.5409 14.7318 12.5094 14.7504 12.4617C14.6855 12.4426 12.8045 11.6499 12.8045 9.4245C12.8045 7.49521 14.2871 6.62608 14.3705 6.55922C13.3882 5.10749 11.8964 5.06928 11.4887 5.06928C10.386 5.06928 9.48717 5.75695 8.92193 5.75695C8.31037 5.75695 7.50421 5.10749 6.54979 5.10749C4.73362 5.10749 2.88965 6.65473 2.88965 9.57731C2.88965 11.392 3.57535 13.3117 4.41857 14.5533C5.14133 15.6039 5.77143 16.4635 6.67952 16.4635Z" fill="white"/>
</svg>
