<svg width="100%" height="100%" viewBox="0 0 18 18" fill="none" xmlns="http://www.w3.org/2000/svg">
<path d="M1.5 8.625C1.5 7.21581 1.91787 5.83826 2.70078 4.66656C3.48368 3.49486 4.59646 2.58164 5.89838 2.04236C7.2003 1.50309 8.6329 1.36199 10.015 1.63691C11.3971 1.91183 12.6667 2.59042 13.6631 3.58687C14.6596 4.58332 15.3382 5.85287 15.6131 7.23498C15.888 8.6171 15.7469 10.0497 15.2076 11.3516C14.6684 12.6535 13.7551 13.7663 12.5834 14.5492C11.4117 15.3321 10.0342 15.75 8.625 15.75C6.73597 15.7479 4.92492 14.9966 3.58918 13.6608C2.25344 12.3251 1.5021 10.514 1.5 8.625ZM2.59567 8.625C2.59567 9.81749 2.94928 10.9832 3.61179 11.9747C4.2743 12.9662 5.21596 13.739 6.31767 14.1954C7.41939 14.6517 8.63169 14.7711 9.80126 14.5385C10.9708 14.3058 12.0452 13.7316 12.8884 12.8884C13.7316 12.0452 14.3058 10.9708 14.5385 9.80127C14.7711 8.63169 14.6517 7.41939 14.1954 6.31768C13.739 5.21596 12.9662 4.27431 11.9747 3.6118C10.9832 2.94928 9.81749 2.59567 8.625 2.59567C7.02643 2.59735 5.49382 3.23312 4.36347 4.36347C3.23311 5.49383 2.59734 7.02644 2.59567 8.625ZM10.1782 11.684L8.23708 9.74363C8.13514 9.64031 8.07821 9.50085 8.07875 9.35571V5.55571C8.07875 5.41042 8.13647 5.27107 8.2392 5.16833C8.34194 5.0656 8.48129 5.00788 8.62658 5.00788C8.77188 5.00788 8.91122 5.0656 9.01396 5.16833C9.1167 5.27107 9.17442 5.41042 9.17442 5.55571V9.1285L10.9541 10.9082C11.0064 10.9587 11.0481 11.0191 11.0768 11.0859C11.1055 11.1527 11.1206 11.2246 11.1212 11.2973C11.1219 11.37 11.108 11.4421 11.0805 11.5094C11.053 11.5767 11.0124 11.6379 10.961 11.6893C10.9096 11.7408 10.8485 11.7815 10.7812 11.809C10.7139 11.8366 10.6418 11.8505 10.5691 11.85C10.4964 11.8494 10.4246 11.8343 10.3577 11.8057C10.2909 11.7771 10.2304 11.7354 10.1798 11.6832L10.1782 11.684Z" fill="currentColor"/>
</svg>
