<svg width="16" height="17" viewBox="0 0 16 17" fill="none" xmlns="http://www.w3.org/2000/svg">
<g id="Edit Square">
<path id="Stroke 1" d="M8 1.17725C2.79725 1.17725 1.0625 3.00837 1.0625 8.50016C1.0625 13.992 2.79725 15.8231 8 15.8231C13.2027 15.8231 14.9375 13.992 14.9375 8.50016" stroke="#505458" stroke-linecap="round" stroke-linejoin="round"/>
<path id="Stroke 3" fill-rule="evenodd" clip-rule="evenodd" d="M13.646 2.40717V2.40717C12.9013 1.71129 11.7635 1.78413 11.1043 2.57025C11.1043 2.57025 7.82753 6.47713 6.69128 7.83325C5.55353 9.18859 6.38753 11.0609 6.38753 11.0609C6.38753 11.0609 8.26553 11.6887 9.38603 10.3523C10.5073 9.016 13.8005 5.09013 13.8005 5.09013C14.4598 4.304 14.39 3.10304 13.646 2.40717Z" stroke="#505458" stroke-linecap="round" stroke-linejoin="round"/>
<path id="Stroke 5" d="M10.2568 3.59229L12.9531 6.11216" stroke="#505458" stroke-linecap="round" stroke-linejoin="round"/>
</g>
</svg>
