<svg width="22" height="23" viewBox="0 0 22 23" fill="none" xmlns="http://www.w3.org/2000/svg">
<g id="Group">
<g id="Vector">
<path d="M14.5303 11.2142C14.7212 11.3094 15.0076 11.3094 15.294 11.3094C17.0124 11.3094 18.4444 9.88082 18.4444 8.16653C18.4444 6.45225 17.0124 5.02368 15.294 5.02368C15.1986 5.02368 15.1986 5.02368 15.1031 5.02368C15.6759 5.78558 15.9623 6.73796 15.9623 7.78558C15.9623 9.02368 15.485 10.2618 14.5303 11.2142Z" fill="current"/>
<path d="M16.5351 12.5476H15.8668C17.1079 13.5 17.8716 15.0238 17.8716 16.7381C17.8716 17.1191 17.7761 17.5 17.6807 17.881C18.6353 17.6905 19.2081 17.5 19.59 17.3095C19.9719 17.1191 20.1628 16.6429 20.1628 16.1667C20.2583 14.1667 18.5399 12.5476 16.5351 12.5476Z" fill="current"/>
<path d="M6.70206 11.3095C6.98845 11.3095 7.17939 11.3095 7.46579 11.2143C6.60659 10.2619 6.03379 9.11905 6.03379 7.69048C6.03379 6.64286 6.32019 5.69048 6.89299 4.92858C6.89299 4.92858 6.79752 4.92858 6.70206 4.92858C4.98366 4.92858 3.55167 6.35715 3.55167 8.07143C3.55167 9.78572 4.8882 11.3095 6.70206 11.3095Z" fill="current"/>
<path d="M6.03377 12.5476H5.46097C3.45618 12.5476 1.83325 14.1667 1.83325 16.1667C1.83325 16.6429 2.02418 17.1191 2.40605 17.3095C2.78792 17.5 3.36071 17.7857 4.31538 17.881C4.21991 17.5 4.12444 17.1191 4.12444 16.7381C4.12444 15.1191 4.79271 13.5952 6.03377 12.5476Z" fill="current"/>
<path d="M8.80234 10.4523C9.37514 10.9285 10.1389 11.2142 10.9981 11.2142C11.8573 11.2142 12.621 10.9285 13.1938 10.4523C14.053 9.78567 14.5303 8.83329 14.5303 7.69044C14.5303 6.83329 14.2439 5.97615 13.6711 5.40472C13.0029 4.64282 12.0482 4.16663 10.9981 4.16663C9.94794 4.16663 8.89781 4.64282 8.32501 5.40472C7.75221 5.97615 7.37035 6.83329 7.37035 7.69044C7.37035 8.83329 7.94314 9.78567 8.80234 10.4523Z" fill="current"/>
<path d="M12.9073 12.7381C12.7163 12.7381 12.5254 12.7381 12.3345 12.7381H9.47047C9.27954 12.7381 9.0886 12.7381 8.89767 12.7381C6.89288 13.0238 5.36542 14.7381 5.36542 16.7381C5.36542 17.3095 5.65182 17.7857 6.03368 17.9761C6.70195 18.3571 8.03847 18.8333 10.807 18.8333C13.5755 18.8333 14.912 18.3571 15.5803 17.9761C16.0576 17.6904 16.2486 17.2142 16.2486 16.7381C16.535 14.7381 14.9121 13.0238 12.9073 12.7381Z" fill="current"/>
</g>
</g>
</svg>
