<svg width="22" height="23" viewBox="0 0 22 23" fill="none" xmlns="http://www.w3.org/2000/svg">
<g id="LittleFinger">
<g id="Group">
<g id="Vector">
<path d="M7.2345 14.033V8.75707C7.2345 8.35873 7.39274 7.9767 7.6744 7.69503C7.95607 7.41337 8.3381 7.25513 8.73644 7.25513C9.13478 7.25513 9.5168 7.41337 9.79847 7.69503C10.0801 7.9767 10.2384 8.35873 10.2384 8.75707V15.2987M10.0833 11.9583L10.2384 8.75707C10.2384 8.35873 10.3966 7.9767 10.6783 7.69503C10.96 7.41337 11.342 7.25513 11.7403 7.25513C12.1387 7.25513 12.5207 7.41337 12.8023 7.69503C13.084 7.9767 13.2423 8.35873 13.2423 8.75707L13.2916 12.875" fill="current"/>
<path d="M7.2345 14.033V8.75707C7.2345 8.35873 7.39274 7.9767 7.6744 7.69503C7.95607 7.41337 8.3381 7.25513 8.73644 7.25513C9.13478 7.25513 9.5168 7.41337 9.79847 7.69503C10.0801 7.9767 10.2384 8.35873 10.2384 8.75707M10.2384 8.75707V15.2987M10.2384 8.75707L10.0833 11.9583M10.2384 8.75707C10.2384 8.35873 10.3966 7.9767 10.6783 7.69503C10.96 7.41337 11.342 7.25513 11.7403 7.25513C12.1387 7.25513 12.5207 7.41337 12.8023 7.69503C13.084 7.9767 13.2423 8.35873 13.2423 8.75707L13.2916 12.875" stroke="current" stroke-width="1.3" stroke-linecap="round" stroke-linejoin="round"/>
</g>
<g id="Vector_2">
<path d="M16.2461 10.259V4.75194C16.2461 4.3536 16.4044 3.97158 16.686 3.68991C16.9677 3.40824 17.3497 3.25 17.7481 3.25C18.1464 3.25 18.5284 3.40824 18.8101 3.68991C19.0918 3.97158 19.25 4.3536 19.25 4.75194V14.2642C19.25 15.8576 18.617 17.3857 17.4904 18.5123C16.3637 19.639 14.8356 20.272 13.2422 20.272H11.2397H11.4479C10.453 20.2721 9.47357 20.0252 8.59763 19.5533C7.7217 19.0815 6.97667 18.3994 6.42945 17.5685C6.36377 17.4685 6.29836 17.3684 6.2332 17.2681C5.92079 16.7885 4.82438 14.877 2.94295 11.5327C2.75115 11.1918 2.69992 10.7895 2.80015 10.4114C2.90037 10.0333 3.14416 9.70921 3.47964 9.50808C3.83698 9.29367 4.25571 9.2048 4.66934 9.2556C5.08296 9.30639 5.46775 9.49394 5.76259 9.78844L7.23449 11.2603" fill="current"/>
<path d="M16.2461 10.259V4.75194C16.2461 4.3536 16.4044 3.97158 16.686 3.68991C16.9677 3.40824 17.3497 3.25 17.7481 3.25C18.1464 3.25 18.5284 3.40824 18.8101 3.68991C19.0918 3.97158 19.25 4.3536 19.25 4.75194V14.2642C19.25 15.8576 18.617 17.3857 17.4904 18.5123C16.3637 19.639 14.8356 20.272 13.2422 20.272H11.2397H11.4479C10.453 20.2721 9.47357 20.0252 8.59763 19.5533C7.7217 19.0815 6.97667 18.3994 6.42945 17.5685C6.36377 17.4685 6.29836 17.3684 6.2332 17.2681C5.92079 16.7885 4.82438 14.877 2.94295 11.5327C2.75115 11.1918 2.69992 10.7895 2.80015 10.4114C2.90037 10.0333 3.14416 9.70921 3.47964 9.50808C3.83698 9.29367 4.25571 9.2048 4.66934 9.2556C5.08296 9.30639 5.46775 9.49394 5.76259 9.78844L7.23449 11.2603" stroke="current" stroke-width="1.3" stroke-linecap="round" stroke-linejoin="round"/>
</g>
<g id="Vector_3">
<path d="M13.2916 11.0416C13.2916 10.6433 13.4005 7.9767 13.6822 7.69503C13.9639 7.41337 14.3459 7.25513 14.7442 7.25513C15.1426 7.25513 15.5246 7.41337 15.8063 7.69503C16.0879 7.9767 16.2462 8.35873 16.2462 8.75707V10.259" fill="current"/>
<path d="M13.2916 11.0416C13.2916 10.6433 13.4005 7.9767 13.6822 7.69503C13.9639 7.41337 14.3459 7.25513 14.7442 7.25513C15.1426 7.25513 15.5246 7.41337 15.8063 7.69503C16.0879 7.9767 16.2462 8.35873 16.2462 8.75707V10.259" stroke="current" stroke-width="1.3" stroke-linecap="round" stroke-linejoin="round"/>
</g>
</g>
</g>
</svg>
