<svg width="100%" height="100%" viewBox="0 0 32 32" fill="none" xmlns="http://www.w3.org/2000/svg">
<g id="LittleFinger">
<g id="Group">
<path id="Vector" d="M10.5229 15.6514V12.0103C10.5229 11.4309 10.7531 10.8752 11.1628 10.4655C11.5725 10.0558 12.1282 9.82568 12.7076 9.82568C13.287 9.82568 13.8427 10.0558 14.2524 10.4655C14.6621 10.8752 14.8922 11.4309 14.8922 12.0103M14.8922 12.0103V14.195M14.8922 12.0103V13.4667M14.8922 12.0103C14.8922 11.4309 15.1224 10.8752 15.5321 10.4655C15.9418 10.0558 16.4975 9.82568 17.0769 9.82568C17.6563 9.82568 18.2119 10.0558 18.6216 10.4655C19.0313 10.8752 19.2615 11.4309 19.2615 12.0103V14.195" stroke="black" stroke-width="1.3" stroke-linecap="round" stroke-linejoin="round"/>
<path id="Vector_2" d="M23.6307 14.195V6.18464C23.6307 5.60524 23.8609 5.04956 24.2706 4.63987C24.6803 4.23017 25.236 4 25.8154 4C26.3948 4 26.9504 4.23017 27.3601 4.63987C27.7698 5.04956 28 5.60524 28 6.18464V20.0207C28 22.3383 27.0793 24.561 25.4405 26.1998C23.8017 27.8386 21.5791 28.7592 19.2614 28.7592H16.3486H16.6515C15.2043 28.7595 13.7797 28.4003 12.5056 27.7139C11.2316 27.0276 10.1479 26.0355 9.35193 24.8269C9.2564 24.6815 9.16125 24.5358 9.06647 24.39C8.61206 23.6923 7.01728 20.912 4.28065 16.0476C4.00167 15.5517 3.92715 14.9665 4.07294 14.4166C4.21873 13.8666 4.57332 13.3952 5.0613 13.1027C5.58106 12.7908 6.19013 12.6615 6.79176 12.7354C7.39339 12.8093 7.95309 13.0821 8.38195 13.5105L10.5229 15.6514" stroke="black" stroke-width="1.3" stroke-linecap="round" stroke-linejoin="round"/>
<path id="Vector_3" d="M19.2617 12.0103C19.2617 11.4309 19.4919 10.8752 19.9016 10.4655C20.3113 10.0558 20.867 9.82568 21.4464 9.82568C22.0258 9.82568 22.5814 10.0558 22.9911 10.4655C23.4008 10.8752 23.631 11.4309 23.631 12.0103V14.195" stroke="black" stroke-width="1.3" stroke-linecap="round" stroke-linejoin="round"/>
</g>
</g>
</svg>
