<svg width="22" height="23" viewBox="0 0 22 23" fill="none" xmlns="http://www.w3.org/2000/svg">
<g id="Home">
<path id="Vector" d="M20.0606 14.5236C19.9171 16.1122 19.6863 17.4032 19.4055 18.555C19.2183 19.7068 18.0952 20.6667 16.8786 20.6667H15.3811C14.5388 20.6667 13.8837 19.9948 13.8837 19.1309V15.1955C13.8837 14.2356 13.1349 13.4677 12.199 13.4677H10.0464C9.11053 13.4677 8.3618 14.2356 8.3618 15.1955V19.1309C8.3618 19.9948 7.70666 20.6667 6.86435 20.6667H5.08612C3.86944 20.6667 2.83995 19.8028 2.55917 18.555C2.2784 17.3072 2.03496 16.1133 1.90404 14.5236C1.73788 12.5059 1.90404 10.5881 1.99763 9.34032C1.99763 8.57244 2.46558 7.80455 3.12072 7.32462L9.67207 2.81327C10.0464 2.52532 10.5144 2.33334 10.9823 2.33334C11.4503 2.33334 12.0118 2.52532 12.3862 2.81327L18.9376 7.32462C19.5927 7.80455 20.0606 8.57244 20.0606 9.34032C20.1542 10.5881 20.2428 12.5077 20.0606 14.5236Z" fill="current"/>
</g>
</svg>
