<svg width="22" height="23" viewBox="0 0 22 23" fill="none" xmlns="http://www.w3.org/2000/svg">
<g id="Smile">
<path id="Vector" d="M11 2.33337C5.94896 2.33337 1.83331 6.44902 1.83331 11.5C1.83331 16.5511 5.94896 20.6667 11 20.6667C16.051 20.6667 20.1666 16.5511 20.1666 11.5C20.1666 6.44902 16.051 2.33337 11 2.33337ZM8.19386 7.75854C8.66154 7.75854 9.12923 8.22623 9.12923 8.69392C9.12923 9.16161 8.66154 9.62929 8.19386 9.62929C7.72617 9.62929 7.25848 9.16161 7.25848 8.69392C7.25848 8.22623 7.72617 7.75854 8.19386 7.75854ZM14.2738 14.8674C13.2449 15.6157 12.403 15.9898 11 15.9898C9.59692 15.9898 8.84862 15.7092 7.72617 14.8674C7.44556 14.6803 7.35202 14.2126 7.63263 13.932C7.91325 13.6514 8.2874 13.5579 8.56801 13.8385C9.40984 14.3997 9.97107 14.5868 10.9064 14.5868C11.8418 14.5868 12.4966 14.3997 13.2449 13.8385C13.5255 13.6514 13.9932 13.6514 14.1803 13.932C14.3673 14.2126 14.5544 14.5868 14.2738 14.8674ZM13.8061 9.62929C13.3384 9.62929 12.8707 9.16161 12.8707 8.69392C12.8707 8.22623 13.3384 7.75854 13.8061 7.75854C14.2738 7.75854 14.7415 8.22623 14.7415 8.69392C14.7415 9.16161 14.2738 9.62929 13.8061 9.62929Z" fill="current"/>
</g>
</svg>
