<svg width="40" height="40" viewBox="0 0 40 40" fill="none" xmlns="http://www.w3.org/2000/svg">
<g id="COCO/Bold/Plus">
<path id="Vector" fill-rule="evenodd" clip-rule="evenodd" d="M19.9999 12.0833C20.6903 12.0833 21.2499 12.643 21.2499 13.3333V18.75H26.6666C27.3569 18.75 27.9166 19.3097 27.9166 20C27.9166 20.6904 27.3569 21.25 26.6666 21.25H21.2499V26.6667C21.2499 27.357 20.6903 27.9167 19.9999 27.9167C19.3096 27.9167 18.7499 27.357 18.7499 26.6667V21.25H13.3333C12.6429 21.25 12.0833 20.6904 12.0833 20C12.0833 19.3097 12.6429 18.75 13.3333 18.75H18.7499V13.3333C18.7499 12.643 19.3096 12.0833 19.9999 12.0833Z" fill="#363853"/>
</g>
</svg>
