<svg width="100%" height="100%" viewBox="0 0 16 16" fill="none" xmlns="http://www.w3.org/2000/svg">
<path d="M5.71341 2V3.67583M10.9533 2V3.67583M6.36839 10.2116H8.33335M6.36839 8.20057H10.2983M2.88887 10.1657C2.59263 8.87314 2.59263 7.528 2.88887 6.23549C3.29907 4.44577 4.66451 3.04834 6.41326 2.62853C7.67618 2.32535 8.99053 2.32535 10.2535 2.62853C12.0022 3.04834 13.3676 4.44577 13.7778 6.23549C14.0741 7.528 14.0741 8.87314 13.7778 10.1657C13.3676 11.9554 12.0022 13.3528 10.2535 13.7726C8.99053 14.0758 7.67618 14.0758 6.41326 13.7726C4.66451 13.3528 3.29907 11.9554 2.88887 10.1657Z" stroke="currentColor" stroke-linecap="round"/>
</svg>
