<svg width="22" height="22" viewBox="0 0 22 22" fill="none" xmlns="http://www.w3.org/2000/svg">
<path fill-rule="evenodd" clip-rule="evenodd" d="M11.0027 8.82887C9.75696 8.82887 8.74708 9.80088 8.74708 10.9999C8.74708 12.199 9.75696 13.171 11.0027 13.171C12.2485 13.171 13.2584 12.199 13.2584 10.9999C13.2584 9.80088 12.2485 8.82887 11.0027 8.82887ZM7.24331 10.9999C7.24331 9.00152 8.92646 7.3815 11.0027 7.3815C13.079 7.3815 14.7621 9.00152 14.7621 10.9999C14.7621 12.9983 13.079 14.6183 11.0027 14.6183C8.92646 14.6183 7.24331 12.9983 7.24331 10.9999Z" fill="black"/>
<path fill-rule="evenodd" clip-rule="evenodd" d="M18.7014 10.9999L18.9176 11.1206C20.1076 11.7849 20.5188 13.2483 19.839 14.3994L18.4594 16.7356C17.7712 17.901 16.2278 18.3028 15.0231 17.6302L14.8374 17.5266V17.7543C14.8374 19.0866 13.7153 20.1666 12.3312 20.1666H9.59526C8.21108 20.1666 7.08899 19.0866 7.08899 17.7543V17.5575L6.99984 17.6084C5.79362 18.2982 4.23408 17.9007 3.54076 16.7266L2.16126 14.3906C1.48656 13.2481 1.88615 11.796 3.05998 11.1248L3.2783 10.9999L3.05998 10.8751C1.88616 10.2038 1.48656 8.7517 2.16126 7.60919L3.54076 5.27321C4.23408 4.09918 5.79362 3.7016 6.99984 4.39139L7.08899 4.44237V4.24553C7.08899 2.91326 8.21108 1.83325 9.59526 1.83325H12.3312C13.7153 1.83325 14.8374 2.91327 14.8374 4.24553V4.47321L15.0231 4.36959C16.2278 3.69704 17.7712 4.09887 18.4594 5.26426L19.839 7.60048C20.5188 8.75158 20.1076 10.2149 18.9176 10.8792L18.7014 10.9999ZM17.1993 11.8346C16.5333 11.4628 16.5333 10.5371 17.1993 10.1652L18.1631 9.6272C18.6391 9.36147 18.8036 8.77614 18.5317 8.3157L17.1521 5.97948C16.8768 5.51332 16.2594 5.35259 15.7775 5.62161L14.8392 6.14545C14.1708 6.51855 13.3337 6.05441 13.3337 5.31077V4.24553C13.3337 3.71263 12.8848 3.28062 12.3312 3.28062H9.59526C9.04159 3.28062 8.59275 3.71263 8.59275 4.24553V5.29021C8.59275 6.03837 7.74643 6.5019 7.07817 6.11975L6.23173 5.6357C5.74924 5.35978 5.12543 5.51881 4.8481 5.98843L3.4686 8.32441C3.19872 8.78141 3.35856 9.36225 3.82808 9.63076L4.7717 10.1704C5.42561 10.5443 5.42561 11.4555 4.7717 11.8295L3.82808 12.3691C3.35856 12.6376 3.19872 13.2184 3.4686 13.6754L4.8481 16.0114C5.12543 16.481 5.74924 16.6401 6.23173 16.3641L7.07817 15.8801C7.74643 15.4979 8.59275 15.9615 8.59275 16.7096V17.7543C8.59275 18.2872 9.04159 18.7192 9.59526 18.7192H12.3312C12.8848 18.7192 13.3337 18.2872 13.3337 17.7543V16.6891C13.3337 15.9454 14.1708 15.4813 14.8392 15.8544L15.7775 16.3782C16.2594 16.6472 16.8768 16.4865 17.1521 16.0204L18.5317 13.6841C18.8036 13.2237 18.6391 12.6384 18.1631 12.3726L17.1993 11.8346Z" fill="black"/>
</svg>
